<svg width="25" height="24" viewBox="0 0 25 24" fill="none" xmlns="http://www.w3.org/2000/svg">
<path d="M17.8862 3L21.429 3.00335L21.4309 6.52648L15.964 11.992L18.7923 14.8207L20.2071 13.4071L21.6214 14.8213L19.1465 17.2962L21.9749 20.1246L20.5607 21.5388L17.7323 18.7104L15.2574 21.1853L13.8432 19.7711L15.2568 18.3562L12.428 15.528L9.60024 18.3558L11.0148 19.7711L9.60058 21.1853L7.12608 18.71L4.29728 21.5388L2.88306 20.1246L5.71186 17.2958L3.23662 14.8213L4.65083 13.4071L6.06471 14.8202L8.89206 11.992L3.43175 6.53118L3.42901 3L6.975 3.00335L12.428 8.457L17.8862 3ZM10.3061 13.406L7.47801 16.234L8.18601 16.941L11.013 14.113L10.3061 13.406ZM19.43 5.001H18.713L13.842 9.87L14.549 10.577L19.43 5.698V5.001ZM5.43001 5.001V5.701L16.671 16.942L17.3781 16.2349L6.14501 5.002L5.43001 5.001Z" fill="#515151"/>
</svg>
